<svg xmlns="http://www.w3.org/2000/svg" xml:space="preserve" width="1158.1732" height="200" viewBox="0 0 1158.1732 199.99999"><defs><linearGradient id="a" x1="227.67285" x2="221.14549" y1="487.43066" y2="469.4968" gradientTransform="matrix(2.7059 0 0 2.7059 -532.114 -828.087)" gradientUnits="userSpaceOnUse" spreadMethod="pad"><stop offset="0" style="stop-opacity:1;stop-color:#a7a5a6"/><stop offset="0.32683508" style="stop-opacity:1;stop-color:#a7a5a6"/><stop offset="0.43257" style="stop-opacity:1;stop-color:#7b7979"/><stop offset="0.44856426" style="stop-opacity:1;stop-color:#7b7979"/><stop offset="0.56741" style="stop-opacity:1;stop-color:#7b7979"/><stop offset="0.71714952" style="stop-opacity:1;stop-color:#a7a5a6"/><stop offset="1" style="stop-opacity:1;stop-color:#a7a5a6"/></linearGradient><linearGradient id="b" x1="209.41504" x2="194.76569" y1="496.63574" y2="475.16223" gradientTransform="matrix(2.7059 0 0 2.7059 -532.114 -828.087)" gradientUnits="userSpaceOnUse" spreadMethod="pad"><stop offset="0" style="stop-opacity:1;stop-color:#2b3b8d"/><stop offset="0.29986478" style="stop-opacity:1;stop-color:#1e59ae"/><stop offset="0.50562" style="stop-opacity:1;stop-color:#1e59ae"/><stop offset="0.66477712" style="stop-opacity:1;stop-color:#1e59ae"/><stop offset="1" style="stop-opacity:1;stop-color:#2b3b8d"/></linearGradient><linearGradient id="c" x1="194.24561" x2="194.24553" y1="497.13086" y2="481.40845" gradientTransform="matrix(2.7059 0 0 2.7059 -532.114 -828.087)" gradientUnits="userSpaceOnUse" spreadMethod="pad"><stop offset="0" style="stop-opacity:1;stop-color:#a7a5a6"/><stop offset="0.58987" style="stop-opacity:1;stop-color:#a7a5a6"/><stop offset="1" style="stop-opacity:1;stop-color:#7b7979"/></linearGradient></defs><path d="M248.916 503.873c1.252-3.705 4.291-7.193 9.127-10.453 4.84-3.245 9.613-5.063 14.333-5.402l7.204 5.983c-6.062 1.052-11.427 4.149-16.115 9.296-4.688 5.148-7.018 11.743-7.018 19.803l-.032 7.53c-.195 3.52-2.404 5.312-6.622 5.312h-11.806c1.046-.555 1.87-1.469 2.5-2.748.586-1.2.866-2.294.908-3.303V523.1c0-7.917-2.336-14.48-6.981-19.692-4.646-5.232-10.03-8.355-16.15-9.407l7.298-5.983c4.65.423 9.407 2.241 14.28 5.454 4.867 3.224 7.89 6.696 9.074 10.401zM149.945 510.49c-5.978-2.975-12.034-4.46-18.154-4.46l7.087-6.19c6.194 0 12.737 1.333 19.639 3.99 6.897 2.665 11.389 6.042 13.455 10.18 2.135-4.054 6.67-7.441 13.614-10.126 6.923-2.7 13.419-4.043 19.475-4.043l7.082 6.188c-6.056 0-12.065 1.507-18.043 4.52-5.982 3.017-10.19 6.722-12.615 11.14h23.904v7.97h-25.923v1.955c0 3.9-2.22 5.86-6.664 5.86H161c1.04-.56 1.87-1.474 2.494-2.747.618-1.274.93-2.426.93-3.483v-1.586h-25.764v-7.97h23.904c-2.442-4.486-6.643-8.217-12.62-11.198zM130.443 486.29h34.11v-7.668h-24.904v-7.98h49.14v-19.433h14.94v27.413h-24.242v7.668h34.125v8.086h-83.169zM483.368 511.288H471.64v17.118h10.728v7.975h-66.395v-7.975h10.845v-17.118h-11.844v-7.986h68.393v7.986m-26.663 0h-14.95v17.118h14.95zM781.682 506.864c4.392-3.466 9.714-5.2 15.992-5.2 6.268 0 11.585 1.734 15.94 5.2 4.344 3.462 6.527 7.69 6.527 12.653 0 4.973-2.183 9.211-6.527 12.71-4.355 3.504-9.672 5.253-15.94 5.253-6.278 0-11.6-1.75-15.992-5.253-4.392-3.499-6.58-7.737-6.58-12.71 0-4.963 2.188-9.19 6.58-12.653m10.179 20.01c1.59 1.955 3.53 2.943 5.813 2.943 2.21 0 4.107-.988 5.703-2.944 1.58-1.96 2.378-4.407 2.378-7.356 0-2.933-.798-5.386-2.378-7.346-1.596-1.961-3.494-2.944-5.703-2.944-2.283 0-4.222.983-5.813 2.944-1.575 1.96-2.378 4.413-2.378 7.346 0 2.949.803 5.396 2.378 7.356zM831.44 534.727c.623-1.274.999-2.426.999-3.483v-44.198H812.36v-7.03h20.078v-5.791h14.93v53.97h.042v3.419c0 3.9-2.225 5.86-6.66 5.86H828.94c1.046-.56 1.876-1.474 2.5-2.747zM562.42 534.727c.618-1.274.999-2.426.999-3.483v-3.05h.006v-33.77h14.94v33.77h.037v3.42c0 3.9-2.224 5.86-6.67 5.86h-11.806c1.036-.56 1.882-1.474 2.495-2.747zM664.377 537.475H653.2c1.051-.56 1.87-1.475 2.5-2.748.607-1.274.988-2.426.988-3.483v-4.217h.01v-1.253h-11.405v-7.785h11.405v-6.083h-11.405v-7.769h11.405v-10.823h14.317v34.88h.021v3.42c0 3.9-2.209 5.86-6.659 5.86z" style="fill:#333;fill-opacity:1;fill-rule:nonzero;stroke:none;stroke-width:2.7059" transform="matrix(1.33333 0 0 -1.33333 28.186 745.69)"/><path d="M791.75 479.002h14.94v12.81h21.193v7.569h-58.219v-7.568h22.086zM754.723 528.195h.022v3.419c0 3.9-2.214 5.86-6.654 5.86h-11.8c1.04-.56 1.86-1.474 2.488-2.747.613-1.274.994-2.426.994-3.483v-79.766h14.95v58.8h12.05v7.986h-12.05v9.93zM297.83 518.719l.03 12.895c0 3.9-2.224 5.86-6.663 5.86h-10.898c1.046-.56 1.87-1.474 2.5-2.747.613-1.274.988-2.426.988-3.483l.01-57.257h14.032v36.292h12.023v7.985h-12.023v.455zM531.176 459.13v7.363h47.189v22.677h-64.74v-7.98h49.8v-7.14H512.83c1.047-.56 1.866-1.474 2.495-2.748.592-1.205.872-2.299.914-3.303v-7.388c0-2.807.957-5.08 2.87-6.834 1.913-1.739 4.46-2.621 7.637-2.621h53.388v7.975zM324.085 534.859c.586-1.205.867-2.294.909-3.303v-13.694c0-2.795.951-5.078 2.827-6.822 1.887-1.75 4.413-2.632 7.584-2.632h53.785v29.199h-67.605c1.052-.56 1.87-1.474 2.5-2.748m15.855-5.227h34.315v-13.133H339.94ZM399.152 494.027v8.086h-84.665v-8.086h34.87v-7.14h-23.354v-7.985h47.808v-5.977h-49.044c1.046-.56 1.87-1.47 2.494-2.749.592-1.2.872-2.293.914-3.303v-6.241c0-2.796.962-5.074 2.88-6.834 1.92-1.754 4.44-2.621 7.532-2.621h51.935v7.87h-48.363v6.31h46.582v21.53h-24.454v7.14zM252.938 459.237v21.012h-18.34c1.047-.56 1.872-1.474 2.495-2.742.592-1.205.872-2.3.915-3.314V460.61c0-2.944.998-5.259 2.986-6.945 1.992-1.66 4.465-2.51 7.42-2.51h52.57v8.08zM797.965 459.326v15.744h-18.35c1.052-.56 1.871-1.474 2.495-2.748.592-1.2.877-2.294.914-3.303v-8.33c0-2.948 1.005-5.252 2.992-6.938 1.992-1.676 4.455-2.516 7.41-2.516h54.064v8.091zM491.565 489.509v8.086h-84.67v-8.086h34.86v-8.086h-24.977c1.04-.56 1.865-1.475 2.494-2.748.592-1.2.872-2.294.914-3.309v-14.734c0-2.796.93-5.074 2.817-6.834 1.876-1.754 4.403-2.621 7.584-2.621h50.455v30.246h-24.337v8.086h34.86m-25.458-16.172v-14.174h-30.985v14.174zM544.895 510.442c-4.481 4.868-6.891 10.317-7.25 17.874h16.636l-.031 2.288c0 1.67-.65 5.026-3.938 5.692h-43.659v-7.98h16.305c-.296-7.489-2.664-12.916-7.093-17.826-4.423-4.9-9.502-7.827-15.22-8.815l7.081-5.988c4.498.423 9.112 2.246 13.826 5.46 4.73 3.218 7.658 6.695 8.8 10.41 1.215-3.715 4.158-7.208 8.846-10.464 4.688-3.255 9.286-5.063 13.789-5.406l7.087 5.988c-5.645.988-10.708 3.9-15.179 8.767zM640.69 501.347v26.99h9.36v1.824c0 1.839-1.094 5.517-3.927 6.056h-51.586v-7.88h8.302v-26.99h-8.852v-7.88h55.883v7.88h-9.18m-14.718 0h-8.409v26.99h8.409zM727.464 536.687h-42.38v-7.975h29.78v-1.791c0-12.673-3.34-22.118-10.025-28.36-6.67-6.225-15.025-10.04-25.061-11.441l8.302-5.67c10.105.554 19.713 4.719 28.824 12.493 9.112 7.763 13.667 19.11 13.667 34.024v3.356c0 2.204-.93 5.19-3.107 5.364zM662.596 482.596c-5.306 3.995-11.722 5.993-19.248 5.993-7.541 0-13.957-1.998-19.258-5.993-5.311-3.99-7.97-8.82-7.97-14.497 0-5.67 2.659-10.47 7.97-14.438 5.3-3.943 11.717-5.93 19.258-5.93 7.526 0 13.942 1.987 19.248 5.93 5.317 3.969 7.96 8.768 7.96 14.438 0 5.676-2.643 10.507-7.96 14.497m-10.96-23c-2.32-2.442-5.095-3.673-8.288-3.673-3.202 0-5.966 1.231-8.297 3.673-2.352 2.452-3.51 5.285-3.51 8.503 0 3.224 1.158 6.094 3.51 8.62 2.33 2.516 5.095 3.779 8.297 3.779 3.193 0 5.967-1.263 8.287-3.779 2.342-2.526 3.51-5.396 3.51-8.62 0-3.218-1.168-6.05-3.51-8.503zM135.929 423.753l8.308 8.51h3.002l-8.726-9.017 9.418-10.2h-3.752l-8.25 8.916v-8.916h-3.023v16.785c0 .55-.09 1.03-.27 1.438-.174.407-.496.734-.956.993h3.113c.354 0 .629-.09.83-.28.206-.19.306-.47.306-.85v-7.379zM159.5 420.07c0 .613-.053 1.247-.154 1.892-.1.655-.28 1.242-.539 1.786a3.485 3.485 0 0 1-1.099 1.31c-.47.339-1.078.508-1.818.508-.76 0-1.38-.18-1.85-.534a3.74 3.74 0 0 1-1.099-1.337 6.18 6.18 0 0 1-.528-1.78c-.09-.65-.138-1.264-.138-1.845 0-.54.048-1.136.138-1.787.095-.644.27-1.247.528-1.812a3.963 3.963 0 0 1 1.1-1.417c.47-.38 1.088-.576 1.85-.576.74 0 1.347.164 1.817.497.47.338.84.772 1.115 1.305.265.54.444 1.137.54 1.803.09.666.137 1.326.137 1.987m3.113 0c0-2.33-.56-4.128-1.681-5.38-1.12-1.269-2.801-1.898-5.042-1.898-1.205 0-2.235.196-3.081.576-.856.386-1.554.904-2.088 1.575a6.385 6.385 0 0 0-1.183 2.31 10.52 10.52 0 0 0-.376 2.817c0 2.389.576 4.185 1.723 5.396 1.152 1.205 2.817 1.812 5.005 1.812 1.089 0 2.056-.18 2.902-.55.845-.37 1.548-.871 2.114-1.521.56-.65.988-1.4 1.279-2.283.285-.878.428-1.824.428-2.854zM172.791 424.393c-1.094 0-1.945-.317-2.547-.946-.597-.629-1.004-1.485-1.205-2.547v-7.822h-2.944v11.394c0 .523-.095.994-.28 1.406-.185.407-.507.735-.972.994h3.028c.354 0 .634-.096.846-.28.216-.186.322-.47.322-.846v-1.327c.481.767 1.052 1.37 1.712 1.813.656.439 1.427.666 2.32.666.291 0 .619-.022.983-.053.36-.031.687-.09.983-.148v-2.817a4.427 4.427 0 0 1-.998.354 4.947 4.947 0 0 1-1.248.159zM186.215 422.533a5.6 5.6 0 0 1-.211.94c-.1.344-.265.656-.497.946-.232.291-.534.524-.914.714-.38.185-.862.28-1.433.28-.523 0-.967-.085-1.347-.264a3.306 3.306 0 0 1-.973-.693 2.842 2.842 0 0 1-.613-.935 4.715 4.715 0 0 1-.29-.989h6.278m-6.331-1.664c0-.804.084-1.554.275-2.262a4.487 4.487 0 0 1 .946-1.84c.444-.512 1.04-.935 1.791-1.241.745-.302 1.686-.46 2.817-.46a9.652 9.652 0 0 1 2.78.412v-1.76c-.777-.238-1.5-.417-2.183-.539a11.617 11.617 0 0 0-2.066-.185c-2.373 0-4.218.64-5.528 1.908-1.316 1.274-1.977 3.113-1.977 5.507 0 1.036.159 1.971.47 2.796.318.824.756 1.527 1.322 2.093.565.576 1.247 1.004 2.045 1.305.793.301 1.68.45 2.669.45 1.22 0 2.21-.212 2.97-.65.761-.434 1.348-.973 1.765-1.618a6.24 6.24 0 0 0 .862-2.014c.158-.708.243-1.342.259-1.902h-9.217zM199.338 419.436c-.428 0-.941-.032-1.544-.09a8.496 8.496 0 0 1-1.749-.36 3.968 3.968 0 0 1-1.443-.787c-.396-.354-.602-.82-.602-1.416 0-.598.185-1.068.544-1.406.365-.338.883-.513 1.57-.513.465 0 .888.1 1.279.286.386.21.724.454 1.014.766.286.296.513.64.682 1.02.164.375.249.73.249 1.078v1.422m2.832-6.231h-2.832v1.68a4.34 4.34 0 0 0-1.908-1.516 6.08 6.08 0 0 0-2.315-.47c-.592 0-1.147.089-1.654.264-.513.18-.952.422-1.316.734-.375.296-.666.66-.877 1.068a2.707 2.707 0 0 0-.323 1.284c0 1.052.29 1.897.877 2.52.582.635 1.306 1.11 2.167 1.449.862.333 1.776.544 2.733.645.967.11 1.839.18 2.616.211v.867c0 .444-.022.872-.07 1.29a3.388 3.388 0 0 1-.306 1.099c-.158.311-.38.565-.666.76-.29.186-.665.27-1.125.27-.703 0-1.269-.132-1.697-.407a1.474 1.474 0 0 1-.719-1.147c-.073-.407-.216-.697-.422-.872-.201-.163-.407-.253-.608-.253h-2.5a6.82 6.82 0 0 0 .529 1.585c.238.513.592.962 1.057 1.353.46.391 1.04.703 1.733.946.698.238 1.549.36 2.569.36 1.072 0 1.944-.132 2.61-.402.672-.264 1.184-.629 1.544-1.094.359-.47.602-1.015.718-1.638a9.949 9.949 0 0 0 .185-2.009v-8.577zM217.988 413.078h-3.08v16.753c0 .55-.09 1.03-.265 1.438-.175.407-.497.734-.962.993h3.17c.35 0 .63-.09.83-.28.207-.19.307-.47.307-.85v-18.054zM235.835 413.078h-2.89v7.43c0 .614-.027 1.163-.085 1.65a4.297 4.297 0 0 1-.317 1.241 1.883 1.883 0 0 1-.666.788c-.29.19-.676.285-1.162.285a3.59 3.59 0 0 1-1.274-.253 4.763 4.763 0 0 1-1.274-.761 5.11 5.11 0 0 1-1.089-1.227 4.821 4.821 0 0 1-.665-1.675v-7.478h-2.944v11.394c0 .545-.095 1.02-.28 1.427-.185.407-.502.745-.973 1h3.034c.349 0 .634-.096.845-.286.217-.185.318-.465.318-.835v-1.871a7.415 7.415 0 0 0 2.114 2.061c.85.55 1.802.824 2.859.824 1.448 0 2.547-.422 3.308-1.257.756-.846 1.142-2.02 1.142-3.52v-8.937zM249.01 416.857c0-.714-.158-1.332-.47-1.84a4.003 4.003 0 0 0-1.263-1.263 5.783 5.783 0 0 0-1.823-.729 9.341 9.341 0 0 0-2.109-.232c-.296 0-.629.016-.983.063-.37.048-.734.1-1.104.169-.37.069-.74.148-1.1.243-.359.09-.686.201-.988.317l.032 2.6a15 15 0 0 1 .93-.554c.344-.185.703-.36 1.073-.513a7.797 7.797 0 0 1 1.126-.37c.38-.09.75-.137 1.12-.137 1.057 0 1.807.169 2.236.507.438.338.655.74.655 1.2 0 .55-.233.998-.692 1.342a6.749 6.749 0 0 1-1.586.883 5.877 5.877 0 0 1-.513.227c-.211.09-.396.163-.539.227-.412.175-.84.38-1.279.63-.449.247-.861.543-1.242.871-.38.328-.692.703-.946 1.12a2.747 2.747 0 0 0-.375 1.422c0 1.179.444 2.12 1.321 2.822.883.708 2.204 1.063 3.964 1.063.666 0 1.295-.064 1.887-.17a12.14 12.14 0 0 0 1.75-.449v-2.52c-.54.332-1.137.65-1.803.94a4.96 4.96 0 0 1-2.003.433c-.65 0-1.216-.121-1.691-.36-.481-.242-.73-.602-.73-1.098 0-.524.249-.962.74-1.306.492-.338 1.1-.65 1.824-.94.238-.106.48-.212.718-.333.243-.122.487-.222.724-.328.407-.19.804-.402 1.179-.624.38-.238.719-.507 1.015-.824a3.33 3.33 0 0 0 .692-1.084c.17-.412.254-.877.254-1.405zM260.965 424.874h-4.111v-7.378c0-.513.006-.94.027-1.295.016-.349.106-.629.264-.824.158-.212.401-.354.734-.45.333-.095.83-.137 1.475-.137.148 0 .343.006.581.027.244.032.46.069.671.127v-1.791a7.701 7.701 0 0 0-1.099-.196 10.997 10.997 0 0 0-1.1-.058 14.1 14.1 0 0 0-1.928.11c-.566.08-1.041.25-1.432.513-.386.265-.687.645-.904 1.142-.211.48-.317 1.157-.317 1.992v8.218h-2.695v1.74h2.695v2.023c0 .217.037.476.127.75.08.28.306.519.676.704.075.031.222.074.434.127.216.053.438.11.681.18.238.068.466.126.677.179.217.048.354.095.433.132v-4.096h4.112v-1.739zM268.28 430.904c0-.254-.058-.486-.17-.703a1.873 1.873 0 0 0-.443-.56 2.095 2.095 0 0 0-.64-.38 1.898 1.898 0 0 0-.75-.143c-.518 0-.967.18-1.348.523-.38.349-.57.772-.57 1.263 0 .497.19.92.57 1.258.38.338.84.512 1.374.512.502 0 .951-.164 1.364-.491.407-.322.613-.745.613-1.279m-.28-17.858h-2.912v11.527c0 .422-.09.845-.27 1.268-.18.407-.48.766-.904 1.057h3.06c.407 0 .682-.106.82-.322.137-.217.206-.518.206-.904v-12.626zM281.536 424.874h-4.112v-7.378c0-.513.01-.94.027-1.295.022-.349.111-.629.264-.824.159-.212.402-.354.74-.45.328-.095.825-.137 1.47-.137.148 0 .343.006.586.027.238.032.46.069.666.127v-1.791a7.701 7.701 0 0 0-1.1-.196 10.92 10.92 0 0 0-1.098-.058 14.1 14.1 0 0 0-1.93.11c-.565.08-1.035.25-1.426.513-.392.265-.693.645-.904 1.142-.217.48-.323 1.157-.323 1.992v8.218h-2.69v1.74h2.69v2.023c0 .217.043.476.127.75.08.28.307.519.677.704.074.031.216.074.438.127.207.053.434.11.677.18.243.068.465.126.682.179.211.048.348.095.428.132v-4.096h4.111v-1.739zM297.713 413.178h-2.949v2.172a5.092 5.092 0 0 0-.761-.898 6.106 6.106 0 0 0-1.073-.782 6.382 6.382 0 0 0-1.342-.55 5.373 5.373 0 0 0-1.596-.222c-1.02 0-1.845.17-2.463.513-.618.338-1.1.782-1.443 1.337a5.052 5.052 0 0 0-.682 1.876c-.11.703-.169 1.4-.169 2.098v5.75c0 .455-.08.904-.248 1.337a2.057 2.057 0 0 1-.888 1.036h3.25c.317 0 .54-.074.682-.217.137-.137.206-.39.206-.729v-7.663c0-1.205.243-2.05.724-2.516.476-.475 1.194-.703 2.135-.703.412 0 .83.1 1.258.307.423.2.814.486 1.163.84.348.36.64.793.861 1.3.222.518.354 1.078.386 1.692v5.316c0 1.068-.365 1.86-1.105 2.373h3.166c.333 0 .566-.074.692-.217.132-.137.196-.39.196-.729v-12.72zM310.444 424.874h-4.106v-7.378c0-.513.01-.94.027-1.295.016-.349.1-.629.264-.824.154-.212.402-.354.735-.45.333-.095.824-.137 1.47-.137.147 0 .348.006.58.027.244.032.47.069.672.127v-1.791a7.7 7.7 0 0 0-1.1-.196 10.823 10.823 0 0 0-1.094-.058c-.724 0-1.368.031-1.934.11-.56.08-1.041.25-1.427.513-.39.265-.692.645-.903 1.142-.212.48-.323 1.157-.323 1.992v8.218h-2.69v1.74h2.69v2.023c0 .217.042.476.132.75.08.28.307.519.677.704.074.031.216.074.433.127.211.053.439.11.676.18.238.068.466.126.682.179.212.048.36.095.434.132v-4.096h4.106v-1.739zM322.203 422.533a6.104 6.104 0 0 1-.206.94 2.732 2.732 0 0 1-.502.946c-.232.291-.539.524-.914.714-.38.185-.856.28-1.432.28-.518 0-.973-.085-1.348-.264a3.377 3.377 0 0 1-.972-.693 2.842 2.842 0 0 1-.614-.935 4.715 4.715 0 0 1-.29-.989h6.278m-6.331-1.664c0-.804.09-1.554.28-2.262.18-.708.497-1.321.94-1.84.445-.512 1.047-.935 1.792-1.241.75-.302 1.692-.46 2.823-.46a9.582 9.582 0 0 1 2.774.412v-1.76a19.15 19.15 0 0 0-2.177-.539 11.721 11.721 0 0 0-2.072-.185c-2.373 0-4.212.64-5.528 1.908-1.316 1.274-1.971 3.113-1.971 5.507 0 1.036.164 1.971.47 2.796.312.824.756 1.527 1.321 2.093.56.576 1.248 1.004 2.04 1.305.798.301 1.686.45 2.67.45 1.22 0 2.208-.212 2.97-.65.76-.434 1.347-.973 1.764-1.618.413-.64.709-1.31.867-2.014.153-.708.238-1.342.26-1.902h-9.223zM345.637 429.091a.91.91 0 0 0-.65.26 1.56 1.56 0 0 0-.402.639 2.732 2.732 0 0 1-.655.993c-.307.312-.756.46-1.348.46-.444 0-.814-.084-1.1-.254a1.903 1.903 0 0 1-.665-.644 2.698 2.698 0 0 1-.333-.851 4.724 4.724 0 0 1-.1-.93v-2.199h4.423v-1.712h-4.423v-11.807h-3.023v11.807h-2.643v1.712h2.643v1.564c0 .555.084 1.126.259 1.702.174.582.47 1.105.877 1.575.407.465.93.851 1.559 1.136.629.296 1.406.434 2.33.434.91 0 1.692-.095 2.352-.275.656-.19 1.21-.455 1.66-.798.46-.344.819-.75 1.089-1.22.27-.482.47-1.005.597-1.592h-2.447zM358.929 420.07c0 .613-.053 1.247-.154 1.892a6.347 6.347 0 0 1-.544 1.786 3.423 3.423 0 0 1-1.094 1.31c-.47.339-1.083.508-1.818.508-.761 0-1.374-.18-1.855-.534a3.726 3.726 0 0 1-1.094-1.337 6.18 6.18 0 0 1-.529-1.78c-.09-.65-.132-1.264-.132-1.845 0-.54.043-1.136.132-1.787.096-.644.27-1.247.529-1.812a3.95 3.95 0 0 1 1.094-1.417c.48-.38 1.094-.576 1.855-.576.735 0 1.348.164 1.818.497.47.338.84.772 1.11 1.305.264.54.444 1.137.539 1.803.095.666.143 1.326.143 1.987m3.107 0c0-2.33-.56-4.128-1.68-5.38-1.121-1.269-2.802-1.898-5.037-1.898-1.205 0-2.236.196-3.087.576-.856.386-1.548.904-2.082 1.575a6.304 6.304 0 0 0-1.184 2.31 10.113 10.113 0 0 0-.375 2.817c0 2.389.576 4.185 1.723 5.396 1.147 1.205 2.817 1.812 5.005 1.812 1.089 0 2.056-.18 2.901-.55.84-.37 1.544-.871 2.109-1.521a6.35 6.35 0 0 0 1.274-2.283c.29-.878.433-1.824.433-2.854zM372.22 424.393c-1.1 0-1.94-.317-2.547-.946-.597-.629-1.004-1.485-1.205-2.547v-7.822h-2.944v11.394c0 .523-.095.994-.28 1.406-.19.407-.513.735-.978.994h3.029c.354 0 .64-.096.85-.28.212-.186.323-.47.323-.846v-1.327c.48.767 1.052 1.37 1.707 1.813.655.439 1.432.666 2.32.666.29 0 .624-.022.983-.053.36-.031.692-.09.988-.148v-2.817a4.335 4.335 0 0 1-.999.354 4.977 4.977 0 0 1-1.247.159zM395.289 421.048c-.481 1.21-.962 2.404-1.432 3.599-.47 1.194-.952 2.404-1.432 3.63-.481-1.226-.952-2.436-1.417-3.63a557.099 557.099 0 0 0-1.416-3.6h5.697m-4.587 9.498c0 .327-.048.639-.154.935-.1.301-.338.57-.708.809h2.637c.502 0 .883-.111 1.142-.317.259-.217.491-.529.692-.936l7.42-17.932h-3.245c-.417.989-.813 1.972-1.2 2.96-.39.983-.781 1.982-1.194 2.991h-7.335l-2.415-5.977h-2.532c1.073 2.637 2.146 5.264 3.213 7.88 1.063 2.616 2.13 5.237 3.208 7.88.127.322.244.644.333.956.095.317.138.57.138.75zM416.994 413.078h-2.885v7.43c0 .614-.032 1.163-.09 1.65-.053.486-.159.898-.317 1.241-.159.339-.38.603-.666.788-.286.19-.671.285-1.152.285-.407 0-.835-.084-1.28-.253a4.846 4.846 0 0 1-1.273-.761 5.11 5.11 0 0 1-1.089-1.227 4.721 4.721 0 0 1-.666-1.675v-7.478h-2.943v11.394c0 .545-.095 1.02-.28 1.427-.185.407-.508.745-.968 1h3.023c.35 0 .635-.096.851-.286.212-.185.317-.465.317-.835v-1.871a7.396 7.396 0 0 0 2.11 2.061c.855.55 1.812.824 2.864.824 1.448 0 2.547-.422 3.303-1.257.76-.846 1.141-2.02 1.141-3.52v-8.937zM424.7 430.904c0-.254-.053-.486-.164-.703a1.983 1.983 0 0 0-.45-.56 2.095 2.095 0 0 0-.639-.38c-.238-.101-.48-.143-.745-.143-.523 0-.972.18-1.348.523-.385.349-.57.772-.57 1.263 0 .497.185.92.57 1.258.376.338.835.512 1.374.512.503 0 .957-.164 1.359-.491.412-.322.613-.745.613-1.279m-.28-17.858h-2.918v11.527c0 .422-.084.845-.264 1.268-.175.407-.476.766-.898 1.057h3.054c.407 0 .682-.106.825-.322.137-.217.2-.518.2-.904v-12.626zM432.685 424.086a7.343 7.343 0 0 0 1.898 1.972c.734.507 1.59.76 2.568.76 1.115 0 1.982-.269 2.616-.819.624-.544 1.068-1.241 1.327-2.092 1.189 1.94 2.742 2.912 4.671 2.912.994 0 1.787-.19 2.373-.582a3.803 3.803 0 0 0 1.332-1.421 5.45 5.45 0 0 0 .603-1.824c.095-.65.142-1.231.142-1.738v-8.208h-2.896v7.795c0 .423-.027.857-.069 1.3a3.95 3.95 0 0 1-.317 1.205c-.174.355-.423.65-.75.878-.333.232-.782.349-1.332.349-.54 0-1.02-.159-1.448-.476a4.343 4.343 0 0 1-1.1-1.194 6.027 6.027 0 0 1-.692-1.591 5.992 5.992 0 0 1-.237-1.596v-6.67h-2.828v7.362c0 .566-.027 1.1-.08 1.59-.041.508-.142.952-.311 1.333-.174.385-.412.687-.73.903-.306.228-.734.339-1.273.339-.423 0-.83-.106-1.205-.318a3.642 3.642 0 0 1-1.03-.872 5.651 5.651 0 0 1-.793-1.273 6.262 6.262 0 0 1-.47-1.522v-7.51h-2.86l-.058 11.415c0 .534-.095 1-.27 1.406-.174.407-.496.745-.95.999h3.028c.348 0 .623-.095.83-.285.205-.185.311-.466.311-.835v-1.692zM462.25 419.436c-.418 0-.936-.032-1.533-.09a8.404 8.404 0 0 1-1.755-.36 4.035 4.035 0 0 1-1.448-.787c-.396-.354-.592-.82-.592-1.416 0-.598.18-1.068.54-1.406.364-.338.887-.513 1.569-.513.465 0 .888.1 1.273.286.397.21.73.454 1.02.766.286.296.518.64.682 1.02.164.375.243.73.243 1.078v1.422m2.838-6.231h-2.838v1.68a4.268 4.268 0 0 0-1.902-1.516 6.107 6.107 0 0 0-2.32-.47 5.06 5.06 0 0 0-1.65.264c-.507.18-.95.422-1.315.734-.38.296-.661.66-.883 1.068a2.83 2.83 0 0 0-.317 1.284c0 1.052.29 1.897.872 2.52.592.635 1.31 1.11 2.172 1.449a10.62 10.62 0 0 0 2.738.645c.961.11 1.833.18 2.605.211v.867c0 .444-.022.872-.063 1.29a3.263 3.263 0 0 1-.307 1.099c-.158.311-.38.565-.666.76-.29.186-.666.27-1.125.27-.703 0-1.269-.132-1.697-.407a1.474 1.474 0 0 1-.719-1.147c-.079-.407-.222-.697-.417-.872-.206-.163-.412-.253-.613-.253h-2.5c.111.55.285 1.073.523 1.585.243.513.597.962 1.057 1.353.465.391 1.047.703 1.739.946.698.238 1.554.36 2.574.36 1.073 0 1.945-.132 2.61-.402.666-.264 1.179-.629 1.544-1.094.36-.47.602-1.015.718-1.638.122-.613.18-1.285.18-2.009v-8.577zM472.127 413.078h-2.918v17.345c0 .544-.095 1.02-.274 1.427-.19.412-.513.745-.973.999h3.029c.348 0 .623-.09.83-.286.2-.185.306-.465.306-.835zM495.92 427.025c0 .713-.122 1.295-.35 1.744a2.64 2.64 0 0 1-.977 1.062c-.412.259-.92.433-1.496.523-.58.096-1.241.143-1.96.143h-.915c-.665 0-1.067-.095-1.194-.296-.127-.19-.19-.513-.19-.951v-6.004h2.605c.592.016 1.158.08 1.697.2a4.24 4.24 0 0 1 1.432.603c.412.28.74.66.983 1.137.243.475.365 1.088.365 1.839m-3.25 5.237c.94 0 1.796-.106 2.568-.322a5.623 5.623 0 0 0 1.987-.967 4.489 4.489 0 0 0 1.29-1.634c.306-.66.46-1.426.46-2.314 0-1.364-.265-2.426-.793-3.192a4.852 4.852 0 0 0-2.035-1.718c-.82-.37-1.739-.597-2.743-.677a37.993 37.993 0 0 0-2.96-.11h-1.58v-8.25h-3.033v16.838c0 .475-.09.914-.27 1.32-.174.418-.497.757-.977 1.026h8.085zM509.063 424.393c-1.088 0-1.934-.317-2.536-.946-.608-.629-1.005-1.485-1.21-2.547v-7.822h-2.95v11.394c0 .523-.09.994-.275 1.406-.185.407-.507.735-.977.994h3.033c.354 0 .64-.096.846-.28.217-.186.322-.47.322-.846v-1.327c.481.767 1.052 1.37 1.713 1.813.655.439 1.426.666 2.314.666.296 0 .624-.022.989-.053.359-.031.692-.09.988-.148v-2.817a4.623 4.623 0 0 1-.999.354 5.06 5.06 0 0 1-1.258.159zM523.359 420.07c0 .613-.058 1.247-.153 1.892a6.357 6.357 0 0 1-.55 1.786 3.377 3.377 0 0 1-1.094 1.31c-.47.339-1.083.508-1.823.508-.756 0-1.369-.18-1.845-.534-.47-.359-.84-.808-1.093-1.337a6.185 6.185 0 0 1-.534-1.78c-.09-.65-.138-1.264-.138-1.845 0-.54.048-1.136.138-1.787a6.664 6.664 0 0 1 .533-1.812 3.89 3.89 0 0 1 1.094-1.417c.476-.38 1.09-.576 1.845-.576.74 0 1.353.164 1.823.497.476.338.84.772 1.11 1.305.27.54.45 1.137.54 1.803.094.666.147 1.326.147 1.987m3.108 0c0-2.33-.56-4.128-1.68-5.38-1.127-1.269-2.807-1.898-5.048-1.898-1.2 0-2.23.196-3.081.576-.851.386-1.543.904-2.082 1.575-.54.661-.93 1.427-1.179 2.31a10.307 10.307 0 0 0-.375 2.817c0 2.389.57 4.185 1.717 5.396 1.153 1.205 2.817 1.812 5 1.812 1.1 0 2.066-.18 2.901-.55.846-.37 1.549-.871 2.12-1.521.56-.65.988-1.4 1.273-2.283.291-.878.434-1.824.434-2.854zM538.611 420.408c0 .396-.052.84-.163 1.337a5.037 5.037 0 0 1-.555 1.432c-.26.45-.618.835-1.052 1.152-.444.312-1.015.47-1.702.47-.776 0-1.395-.168-1.855-.501a3.45 3.45 0 0 1-1.072-1.274 5.082 5.082 0 0 1-.487-1.617 12.822 12.822 0 0 1-.11-1.612c0-.523.042-1.083.126-1.675a5.204 5.204 0 0 1 .502-1.633 3.222 3.222 0 0 1 1.068-1.242c.465-.323 1.073-.487 1.828-.487.703 0 1.285.18 1.744.529.444.349.804.772 1.068 1.258a5.3 5.3 0 0 1 .528 1.554c.09.539.132.983.132 1.337v.972m.059 9.962c0 .529-.09.999-.275 1.406-.185.407-.513.745-.967.999h3.017c.323 0 .592-.09.825-.301.232-.19.354-.46.354-.798v-18.598h-3.065v1.458a7.994 7.994 0 0 0-1.818-1.205c-.677-.327-1.422-.486-2.241-.486-1.052 0-1.956.185-2.711.55a5.113 5.113 0 0 0-1.829 1.49 6.572 6.572 0 0 0-1.041 2.183c-.222.83-.333 1.696-.333 2.6 0 .888.11 1.755.333 2.6a7.016 7.016 0 0 0 1.041 2.278c.481.66 1.073 1.2 1.802 1.607.735.412 1.617.613 2.659.613.94 0 1.786-.143 2.515-.434.735-.285 1.31-.819 1.734-1.58zM558.382 413.178h-2.949v2.172c-.2-.306-.46-.607-.766-.898a6.428 6.428 0 0 0-1.062-.782 6.595 6.595 0 0 0-1.353-.55 5.335 5.335 0 0 0-1.601-.222c-1.015 0-1.834.17-2.458.513-.618.338-1.1.782-1.437 1.337a4.96 4.96 0 0 0-.682 1.876c-.117.703-.17 1.4-.17 2.098v5.75c0 .455-.079.904-.253 1.337-.17.428-.46.782-.888 1.036h3.256c.311 0 .533-.074.681-.217.132-.137.201-.39.201-.729v-7.663c0-1.205.243-2.05.73-2.516.475-.475 1.189-.703 2.14-.703.402 0 .82.1 1.247.307.423.2.814.486 1.168.84.354.36.634.793.862 1.3a5.14 5.14 0 0 1 .385 1.692v5.316c0 1.068-.37 1.86-1.115 2.373h3.166c.338 0 .576-.074.703-.217.127-.137.195-.39.195-.729v-12.72zM571.056 422.654c-.275 0-.502.053-.677.153-.18.106-.285.344-.322.714a2.396 2.396 0 0 1-.682 1.332c-.365.354-.956.533-1.792.533-.539 0-1.009-.11-1.4-.343a2.939 2.939 0 0 1-1.004-.957 4.766 4.766 0 0 1-.613-1.432 7.163 7.163 0 0 1-.206-1.755c0-2.029.465-3.52 1.379-4.465.914-.946 2.193-1.417 3.847-1.417.423 0 .957.037 1.596.111.645.08 1.195.19 1.655.323v-1.734a12.673 12.673 0 0 0-2.194-.539 15.266 15.266 0 0 0-2.34-.185c-1.053 0-2.014.17-2.886.502a6.345 6.345 0 0 0-2.241 1.422 6.418 6.418 0 0 0-1.438 2.22c-.349.877-.512 1.844-.512 2.912 0 .967.132 1.886.396 2.732.27.856.676 1.59 1.22 2.209a5.86 5.86 0 0 0 2.046 1.474c.82.355 1.77.54 2.865.54.83 0 1.585-.111 2.277-.323a5.718 5.718 0 0 0 1.776-.893 4.283 4.283 0 0 0 1.179-1.385c.29-.528.46-1.12.518-1.749h-2.447zM585.457 424.874h-4.117v-7.378c0-.513.016-.94.032-1.295.016-.349.106-.629.27-.824.153-.212.401-.354.729-.45.333-.095.83-.137 1.469-.137.153 0 .343.006.592.027.232.032.46.069.666.127v-1.791a7.701 7.701 0 0 0-1.1-.196 10.843 10.843 0 0 0-1.099-.058 14.1 14.1 0 0 0-1.929.11c-.565.08-1.041.25-1.427.513-.39.265-.692.645-.904 1.142-.216.48-.322 1.157-.322 1.992v8.218h-2.695v1.74h2.695v2.023c0 .217.042.476.121.75.085.28.318.519.682.704.074.031.217.074.434.127.206.053.438.11.681.18.238.068.465.126.682.179.206.048.354.095.423.132v-4.096h4.117v-1.739zM598.241 416.857c0-.714-.158-1.332-.47-1.84a4.003 4.003 0 0 0-1.263-1.263 5.734 5.734 0 0 0-1.823-.729 9.287 9.287 0 0 0-2.114-.232c-.286 0-.619.016-.983.063-.365.048-.73.1-1.1.169-.364.069-.734.148-1.094.243-.364.09-.692.201-.988.317l.032 2.6c.275-.18.581-.364.93-.554.343-.185.698-.36 1.068-.513a8.18 8.18 0 0 1 1.12-.37 4.94 4.94 0 0 1 1.13-.137c1.058 0 1.803.169 2.242.507.428.338.65.74.65 1.2 0 .55-.233.998-.698 1.342-.46.354-.993.645-1.58.883a6.696 6.696 0 0 1-.513.227c-.222.09-.396.163-.55.227-.401.175-.829.38-1.273.63a7.83 7.83 0 0 0-1.242.871 4.495 4.495 0 0 0-.935 1.12c-.254.423-.38.894-.38 1.422 0 1.179.438 2.12 1.315 2.822.883.708 2.21 1.063 3.97 1.063.665 0 1.294-.064 1.886-.17a12.434 12.434 0 0 0 1.744-.449v-2.52c-.54.332-1.136.65-1.802.94a4.96 4.96 0 0 1-2.003.433c-.645 0-1.21-.121-1.692-.36-.48-.242-.724-.602-.724-1.098 0-.524.249-.962.735-1.306.497-.338 1.1-.65 1.829-.94.232-.106.475-.212.718-.333.238-.122.481-.222.72-.328.406-.19.797-.402 1.183-.624.38-.238.719-.507 1.01-.824.3-.312.528-.677.697-1.084.164-.412.248-.877.248-1.405zM622.79 422.559c0 .914-.08 1.855-.227 2.801-.148.957-.423 1.823-.835 2.595a5.086 5.086 0 0 1-1.665 1.903c-.703.496-1.622.74-2.753.74-1.163 0-2.104-.233-2.817-.709a4.918 4.918 0 0 1-1.65-1.865c-.39-.772-.65-1.628-.781-2.595a21.997 21.997 0 0 1-.19-2.87c0-.888.068-1.802.216-2.727.153-.93.423-1.776.83-2.537a4.98 4.98 0 0 1 1.67-1.881c.724-.486 1.66-.724 2.806-.724 1.115 0 2.02.232 2.722.708a4.861 4.861 0 0 1 1.638 1.855c.397.761.66 1.607.809 2.542.148.93.227 1.855.227 2.764m3.219 0c0-1.332-.138-2.558-.402-3.662-.27-1.126-.692-2.104-1.263-2.95a6.901 6.901 0 0 0-2.193-2.05c-.893-.534-1.945-.872-3.171-1.03a3.545 3.545 0 0 1 1.638-1.237c.666-.249 1.549-.365 2.637-.365.26 0 .518.006.772.027.248.006.523.037.845.069v-1.506c-.486-.08-.94-.154-1.374-.217a8.592 8.592 0 0 0-1.242-.09c-1.083 0-2.04.069-2.843.196-.803.127-1.506.327-2.103.613a4.77 4.77 0 0 0-1.496 1.088 6.546 6.546 0 0 0-1.057 1.58c-1.073.223-1.998.608-2.764 1.153a6.617 6.617 0 0 0-1.887 2.035c-.497.824-.856 1.765-1.083 2.827-.233 1.067-.349 2.235-.349 3.52 0 1.511.148 2.875.444 4.1.301 1.216.787 2.252 1.47 3.108.686.867 1.58 1.533 2.684 1.993 1.1.47 2.452.703 4.038.703 1.559 0 2.885-.228 3.974-.687a6.808 6.808 0 0 0 2.695-1.982c.703-.856 1.216-1.903 1.549-3.124.317-1.232.48-2.6.48-4.112zM641.937 413.178h-2.943v2.172a5.092 5.092 0 0 0-.761-.898 6.71 6.71 0 0 0-1.068-.782 6.546 6.546 0 0 0-1.348-.55 5.384 5.384 0 0 0-1.6-.222c-1.02 0-1.84.17-2.464.513a3.872 3.872 0 0 0-1.442 1.337 5.052 5.052 0 0 0-.682 1.876c-.106.703-.17 1.4-.17 2.098v5.75c0 .455-.079.904-.242 1.337-.17.428-.466.782-.888 1.036h3.25c.312 0 .539-.074.676-.217.138-.137.212-.39.212-.729v-7.663c0-1.205.238-2.05.724-2.516.475-.475 1.194-.703 2.14-.703.402 0 .825.1 1.247.307.429.2.814.486 1.163.84.36.36.64.793.867 1.3.222.518.354 1.078.386 1.692v5.316c0 1.068-.376 1.86-1.11 2.373h3.17c.328 0 .561-.074.698-.217.122-.137.185-.39.185-.729v-12.72zM653.427 419.436c-.428 0-.94-.032-1.543-.09a8.17 8.17 0 0 1-1.744-.36 3.972 3.972 0 0 1-1.454-.787c-.396-.354-.597-.82-.597-1.416 0-.598.185-1.068.544-1.406.355-.338.883-.513 1.57-.513.465 0 .888.1 1.274.286.396.21.73.454 1.02.766.285.296.512.64.682 1.02.158.375.248.73.248 1.078v1.422m2.833-6.231h-2.833v1.68a4.326 4.326 0 0 0-1.903-1.516 6.153 6.153 0 0 0-2.325-.47c-.592 0-1.142.089-1.649.264a4.15 4.15 0 0 0-1.321.734 3.25 3.25 0 0 0-.872 1.068 2.654 2.654 0 0 0-.328 1.284c0 1.052.296 1.897.883 2.52.581.635 1.305 1.11 2.161 1.449a10.62 10.62 0 0 0 2.738.645c.967.11 1.834.18 2.616.211v.867c0 .444-.032.872-.069 1.29a3.387 3.387 0 0 1-.306 1.099c-.159.311-.38.565-.666.76-.291.186-.666.27-1.126.27-.708 0-1.274-.132-1.702-.407a1.488 1.488 0 0 1-.719-1.147c-.073-.407-.21-.697-.417-.872-.2-.163-.407-.253-.613-.253h-2.5c.117.55.296 1.073.534 1.585.232.513.592.962 1.052 1.353.46.391 1.046.703 1.738.946.693.238 1.549.36 2.569.36 1.073 0 1.945-.132 2.61-.402.667-.264 1.184-.629 1.544-1.094.364-.47.597-1.015.724-1.638.116-.613.18-1.285.18-2.009v-8.577zM663.3 413.078h-2.918v17.345c0 .544-.1 1.02-.28 1.427-.19.412-.518.745-.973.999h3.029c.343 0 .623-.09.83-.286.2-.185.311-.465.311-.835zM671.993 430.904a1.45 1.45 0 0 0-.164-.703 1.894 1.894 0 0 0-.45-.56 2.067 2.067 0 0 0-.634-.38 1.952 1.952 0 0 0-.75-.143c-.523 0-.972.18-1.353.523-.375.349-.57.772-.57 1.263 0 .497.195.92.57 1.258.38.338.84.512 1.38.512.502 0 .956-.164 1.358-.491.417-.322.613-.745.613-1.279m-.275-17.858H668.8v11.527c0 .422-.09.845-.265 1.268-.174.407-.48.766-.903 1.057h3.054c.412 0 .682-.106.82-.322.142-.217.21-.518.21-.904v-12.626zM685.253 424.874h-4.112v-7.378c0-.513.006-.94.022-1.295.021-.349.11-.629.27-.824.158-.212.4-.354.734-.45.333-.095.824-.137 1.474-.137.148 0 .344.006.587.027.238.032.46.069.666.127v-1.791a7.701 7.701 0 0 0-1.1-.196 10.92 10.92 0 0 0-1.099-.058c-.724 0-1.363.031-1.929.11-.565.08-1.046.25-1.432.513-.386.265-.687.645-.909 1.142-.206.48-.312 1.157-.312 1.992v8.218h-2.695v1.74h2.695v2.023c0 .217.043.476.127.75.08.28.312.519.677.704.079.031.216.074.433.127.211.053.433.11.676.18.243.068.47.126.688.179.206.048.354.095.428.132v-4.096h4.111v-1.739zM702.873 426.845a1278.851 1278.851 0 0 1-3.002-6.32c-.978-2.088-1.971-4.192-2.97-6.332a24.845 24.845 0 0 0-.946-1.744 8.457 8.457 0 0 0-1.237-1.586 6.125 6.125 0 0 0-1.612-1.146c-.602-.302-1.295-.45-2.071-.45-.814 0-1.501.132-2.067.397-.565.264-1.025.597-1.374.999a4.107 4.107 0 0 0-.793 1.31c-.174.481-.29.936-.343 1.385h3.245c.037-.238.095-.492.153-.745.063-.26.17-.481.306-.687.138-.201.328-.38.555-.513.233-.137.524-.206.872-.206.265 0 .529.09.809.264.28.185.55.418.803.693.265.285.497.607.698.961.2.36.365.709.476 1.052a600.98 600.98 0 0 0-2.616 5.206 686.248 686.248 0 0 1-2.611 5.216 4.87 4.87 0 0 1-.307.576c-.127.211-.28.423-.454.634-.18.222-.365.418-.571.603a2.728 2.728 0 0 1-.613.433h3.081c.428 0 .761-.11 1.004-.333.243-.222.45-.523.634-.893l4.09-8.355 4.25 9.581h2.61zM726.084 432.262v-1.992h-7.499c-.317 0-.576-.01-.777-.027-.206-.022-.36-.058-.476-.127a.553.553 0 0 1-.232-.307 1.726 1.726 0 0 1-.074-.56v-5.19h8.17v-1.918h-8.17v-6.025c0-.513.111-.824.323-.951.21-.117.623-.175 1.236-.175h8.002v-1.913h-12.584v16.838c0 .476-.09.914-.264 1.321-.174.418-.513.756-.988 1.025h13.334zM743.54 426.845l-6.246-13.74h-2.035l-5.38 11.494c-.175.37-.396.761-.687 1.163-.286.396-.698.76-1.237 1.083h3.113c.444 0 .788-.106 1.025-.322.238-.212.439-.513.587-.904l3.916-8.514 4.392 9.74zM753.36 419.436c-.428 0-.94-.032-1.543-.09a8.286 8.286 0 0 1-1.75-.36 3.991 3.991 0 0 1-1.448-.787c-.39-.354-.597-.82-.597-1.416 0-.598.185-1.068.545-1.406.359-.338.882-.513 1.57-.513.464 0 .887.1 1.278.286.391.21.73.454 1.015.766.285.296.512.64.682 1.02.158.375.248.73.248 1.078v1.422m2.833-6.231h-2.833v1.68a4.355 4.355 0 0 0-1.903-1.516 6.113 6.113 0 0 0-2.325-.47c-.587 0-1.142.089-1.654.264-.508.18-.946.422-1.316.734a3.25 3.25 0 0 0-.872 1.068 2.7 2.7 0 0 0-.317 1.284c0 1.052.29 1.897.872 2.52.581.635 1.305 1.11 2.167 1.449.856.333 1.77.544 2.737.645.962.11 1.829.18 2.611.211v.867c0 .444-.027.872-.069 1.29-.053.417-.148.781-.312 1.099a1.956 1.956 0 0 1-.66.76c-.29.186-.666.27-1.126.27-.708 0-1.268-.132-1.696-.407-.428-.27-.661-.65-.72-1.147-.078-.407-.216-.697-.427-.872-.196-.163-.397-.253-.608-.253h-2.495a6.82 6.82 0 0 0 .529 1.585c.238.513.587.962 1.057 1.353.454.391 1.036.703 1.733.946.698.238 1.554.36 2.574.36 1.068 0 1.94-.132 2.606-.402.666-.264 1.183-.629 1.543-1.094.365-.47.602-1.015.724-1.638.116-.613.18-1.285.18-2.009v-8.577zM763.232 413.078h-2.922v17.345c0 .544-.09 1.02-.275 1.427-.185.412-.513.745-.973.999h3.029c.354 0 .629-.09.835-.286.195-.185.306-.465.306-.835zM780.794 413.178h-2.944v2.172a5.18 5.18 0 0 0-.771-.898 6.211 6.211 0 0 0-1.062-.782 6.546 6.546 0 0 0-1.348-.55 5.324 5.324 0 0 0-1.596-.222c-1.02 0-1.845.17-2.463.513-.624.338-1.105.782-1.443 1.337a5.051 5.051 0 0 0-.682 1.876c-.11.703-.169 1.4-.169 2.098v5.75c0 .455-.079.904-.243 1.337-.174.428-.47.782-.893 1.036h3.25c.317 0 .54-.074.682-.217.138-.137.206-.39.206-.729v-7.663c0-1.205.244-2.05.72-2.516.485-.475 1.199-.703 2.145-.703.407 0 .819.1 1.247.307.428.2.814.486 1.168.84.349.36.64.793.861 1.3a5.28 5.28 0 0 1 .392 1.692v5.316c0 1.068-.376 1.86-1.116 2.373h3.166c.333 0 .57-.074.692-.217.132-.137.201-.39.201-.729v-12.72zM792.273 419.436c-.423 0-.935-.032-1.538-.09a8.424 8.424 0 0 1-1.75-.36 3.924 3.924 0 0 1-1.442-.787c-.402-.354-.597-.82-.597-1.416 0-.598.18-1.068.534-1.406.364-.338.887-.513 1.58-.513.454 0 .882.1 1.273.286.386.21.73.454 1.01.766.29.296.513.64.676 1.02.18.375.254.73.254 1.078v1.422m2.838-6.231h-2.838v1.68a4.342 4.342 0 0 0-1.897-1.516 6.168 6.168 0 0 0-2.32-.47c-.598 0-1.142.089-1.655.264-.507.18-.951.422-1.32.734-.376.296-.656.66-.878 1.068a2.765 2.765 0 0 0-.317 1.284c0 1.052.29 1.897.877 2.52.581.635 1.305 1.11 2.167 1.449a10.62 10.62 0 0 0 2.737.645c.962.11 1.834.18 2.606.211v.867c0 .444-.016.872-.07 1.29a3.254 3.254 0 0 1-.3 1.099 2.06 2.06 0 0 1-.666.76c-.291.186-.666.27-1.131.27-.703 0-1.274-.132-1.691-.407a1.488 1.488 0 0 1-.72-1.147c-.078-.407-.221-.697-.417-.872-.206-.163-.412-.253-.613-.253h-2.5c.111.55.286 1.073.524 1.585.248.513.597.962 1.057 1.353.465.391 1.04.703 1.733.946.698.238 1.56.36 2.574.36 1.078 0 1.945-.132 2.61-.402.667-.264 1.18-.629 1.544-1.094a3.88 3.88 0 0 0 .724-1.638c.121-.613.18-1.285.18-2.009v-8.577zM807.372 424.874h-4.112v-7.378c0-.513.01-.94.027-1.295.016-.349.106-.629.265-.824.158-.212.401-.354.734-.45.333-.095.825-.137 1.475-.137.148 0 .338.006.581.027.243.032.465.069.666.127v-1.791a7.487 7.487 0 0 0-1.094-.196 10.998 10.998 0 0 0-1.1-.058c-.723 0-1.363.031-1.928.11-.566.08-1.047.25-1.433.513-.385.265-.692.645-.903 1.142-.212.48-.323 1.157-.323 1.992v8.218h-2.69v1.74h2.69v2.023c0 .217.048.476.127.75.084.28.312.519.687.704.074.031.212.074.423.127.222.053.444.11.682.18.243.068.47.126.682.179.216.048.359.095.433.132v-4.096h4.112v-1.739zM814.681 430.904c0-.254-.053-.486-.164-.703a1.895 1.895 0 0 0-.449-.56 2.007 2.007 0 0 0-.634-.38 1.942 1.942 0 0 0-.756-.143c-.512 0-.967.18-1.342.523a1.65 1.65 0 0 0-.566 1.263c0 .497.185.92.566 1.258.375.338.835.512 1.374.512.502 0 .957-.164 1.358-.491.407-.322.613-.745.613-1.279m-.275-17.858h-2.917v11.527a3.2 3.2 0 0 1-.264 1.268c-.18.407-.476.766-.904 1.057h3.055c.412 0 .682-.106.824-.322.138-.217.206-.518.206-.904zM828.332 420.07c0 .613-.053 1.247-.153 1.892a6.527 6.527 0 0 1-.544 1.786 3.471 3.471 0 0 1-1.094 1.31c-.47.339-1.078.508-1.829.508-.75 0-1.369-.18-1.84-.534a3.812 3.812 0 0 1-1.104-1.337 6.353 6.353 0 0 1-.523-1.78c-.09-.65-.137-1.264-.137-1.845 0-.54.048-1.136.137-1.787.095-.644.27-1.247.523-1.812a4.037 4.037 0 0 1 1.105-1.417c.47-.38 1.089-.576 1.839-.576s1.358.164 1.829.497c.47.338.835.772 1.11 1.305.269.54.449 1.137.544 1.803.09.666.137 1.326.137 1.987m3.108 0c0-2.33-.56-4.128-1.675-5.38-1.131-1.269-2.807-1.898-5.053-1.898-1.2 0-2.225.196-3.076.576-.856.386-1.548.904-2.087 1.575a6.375 6.375 0 0 0-1.179 2.31c-.253.877-.38 1.818-.38 2.817 0 2.389.58 4.185 1.728 5.396 1.141 1.205 2.811 1.812 4.994 1.812 1.1 0 2.067-.18 2.912-.55.835-.37 1.543-.871 2.109-1.521a6.35 6.35 0 0 0 1.273-2.283c.291-.878.434-1.824.434-2.854zM847.369 413.078h-2.886v7.43c0 .614-.032 1.163-.079 1.65-.058.486-.17.898-.328 1.241a1.753 1.753 0 0 1-.67.788c-.281.19-.672.285-1.148.285-.407 0-.835-.084-1.279-.253a4.682 4.682 0 0 1-1.273-.761 5.107 5.107 0 0 1-1.089-1.227 4.812 4.812 0 0 1-.66-1.675v-7.478h-2.955v11.394c0 .545-.084 1.02-.27 1.427-.19.407-.512.745-.972 1h3.023c.354 0 .634-.096.846-.286.216-.185.327-.465.327-.835v-1.871a7.243 7.243 0 0 0 2.104 2.061c.856.55 1.813.824 2.87.824 1.437 0 2.542-.422 3.297-1.257.761-.846 1.142-2.02 1.142-3.52v-8.937z" style="fill:#333;fill-opacity:1;fill-rule:nonzero;stroke:none;stroke-width:2.7059" transform="matrix(1.33333 0 0 -1.33333 28.186 745.69)"/><path d="M42.697 559.267c-35.196 0-63.837-28.64-63.837-63.84 0-9.052 1.87-17.812 5.567-26.038 2.383-2.95 10.698-8.575 19.245 2.312a45.708 45.708 0 0 0-6.663 23.727c0 25.192 20.493 45.694 45.688 45.694 25.203 0 45.699-20.502 45.699-45.694 0-25.203-20.496-45.7-45.699-45.7-8.308 0-15.684 1.81-22.78 6.088l-.766.462-.7-.543c-1.324-1.013-8.766-6.39-20.32-2.94l-4.141 1.343 2.333-2.528c12.215-12.917 28.688-20.03 46.374-20.03 35.208 0 63.85 28.637 63.85 63.848 0 35.199-28.642 63.84-63.85 63.84z" style="fill:#a7a5a6;fill-opacity:1;fill-rule:nonzero;stroke:none;stroke-width:2.7059" transform="matrix(1.33333 0 0 -1.33333 28.186 745.69)"/><path d="M106.534 493.86H88.376c-.815-24.011-20.25-43.391-44.292-44.11V431.6c34.05.723 61.626 28.235 62.45 62.262z" style="fill:url(#a);fill-opacity:1;fill-rule:nonzero;stroke:none;stroke-width:2.7059" transform="matrix(1.33333 0 0 -1.33333 28.186 745.69)"/><path d="M31.595 520.477c-2.056-.627-4.079-1.875-5.931-4.028-9.29-10.799-12.205-27.733-18.545-39.411-1.144-2.11-2.295-3.869-3.447-5.337-8.547-10.887-16.862-5.262-19.245-2.312 0 0 .281-.782 1.018-1.908 1.525-2.316 4.952-6.132 11.695-7.756 10.587-2.556 18.06 1.225 21.602 5.786 3.949 5.082 6.476 11.589 12.278 27.743 4.192 11.672 8.268 17.738 11.643 20.493-2.871 3.83-6.351 6.414-11.068 6.73z" style="fill:url(#b);fill-opacity:1;fill-rule:nonzero;stroke:none;stroke-width:2.7059" transform="matrix(1.33333 0 0 -1.33333 28.186 745.69)"/><path d="M104.531 457.622c-9.387 5.442-24.597 17.79-30.488 30.312-4.323 9.2-5.596 14.706-11.669 24.053C55.864 522 46.5 522.008 46.5 522.008c-9.24.394-14.908-1.53-14.908-1.53h.002c4.717-.317 8.197-2.901 11.068-6.731 2.61-3.483 4.72-8.006 6.806-12.786 2.622-6.011 6.196-15.172 6.196-15.172 10.977-28.456 39.525-29.926 39.525-29.926l4.203-.165c1.397-.047 3.723.082 3.723.082s4.256.084 1.415 1.842z" style="fill:#ee2722;fill-opacity:1;fill-rule:nonzero;stroke:none;stroke-width:2.7059" transform="matrix(1.33333 0 0 -1.33333 28.186 745.69)"/><path d="M3.672 471.701a45.708 45.708 0 0 0-6.663 23.727c0 11.394 4.19 21.824 11.12 29.84h-21.85a63.463 63.463 0 0 1-7.419-29.84c0-9.053 1.87-17.813 5.567-26.04 2.383-2.95 10.698-8.574 19.245 2.313z" style="fill:url(#c);fill-opacity:1;fill-rule:nonzero;stroke:none;stroke-width:2.7059" transform="matrix(1.33333 0 0 -1.33333 28.186 745.69)"/></svg>